<svg width="24" height="24" viewBox="0 0 24 24" fill="none" xmlns="http://www.w3.org/2000/svg">
<path d="M12 3.59998L12.9405 3.65279L13.8692 3.81058L14.7743 4.07136L15.6446 4.43184L16.469 4.88749L17.2373 5.43259L17.9397 6.06028L18.5674 6.76266L19.1125 7.53091L19.5681 8.35535L19.9286 9.22563L20.1894 10.1308L20.3472 11.0595L20.4 12L20.3472 12.9405L20.1894 13.8692L19.9286 14.7743L19.5681 15.6446L19.1125 16.469L18.5674 17.2373L17.9397 17.9397L17.2373 18.5674L16.469 19.1125L15.6446 19.5681L14.7743 19.9286L13.8692 20.1894L12.9405 20.3472L12 20.4L11.0595 20.3472L10.1308 20.1894L9.22563 19.9286L8.35535 19.5681L7.53091 19.1125L6.76266 18.5674L6.06028 17.9397L5.43259 17.2373L4.88749 16.469L4.43184 15.6446L4.07136 14.7743L3.81058 13.8692L3.65279 12.9405L3.59998 12L3.65279 11.0595L3.81058 10.1308L4.07136 9.22563L4.43184 8.35535L4.88749 7.53091L5.43259 6.76266L6.06028 6.06028L6.76266 5.43259L7.53091 4.88749L8.35535 4.43184L9.22563 4.07136L10.1308 3.81058L11.0595 3.65279L12 3.59998Z" fill="#C2CCDE" fill-opacity="0.25"/>
<path d="M12 3.59998L12.056 2.60155C12.0187 2.59945 11.9813 2.59945 11.9439 2.60155L12 3.59998ZM12.9405 3.65279L13.108 2.66692C13.0711 2.66066 13.0339 2.65646 12.9965 2.65437L12.9405 3.65279ZM13.8692 3.81058L14.146 2.84966C14.11 2.83931 14.0735 2.83098 14.0367 2.82471L13.8692 3.81058ZM14.7743 4.07136L15.157 3.14748C15.1224 3.13316 15.0871 3.12079 15.0512 3.11044L14.7743 4.07136ZM15.6446 4.43184L16.1283 3.55661C16.0956 3.53852 16.0618 3.52227 16.0273 3.50796L15.6446 4.43184ZM16.469 4.88749L17.0477 4.07193C17.0172 4.05028 16.9855 4.03036 16.9528 4.01227L16.469 4.88749ZM17.2373 5.43259L17.9036 4.68695C17.8757 4.66202 17.8465 4.63868 17.816 4.61703L17.2373 5.43259ZM17.9397 6.06028L18.6853 5.39393C18.6604 5.36604 18.6339 5.33956 18.606 5.31464L17.9397 6.06028ZM18.5674 6.76266L19.3829 6.18399C19.3613 6.15348 19.3379 6.12421 19.313 6.09631L18.5674 6.76266ZM19.1125 7.53091L19.9877 7.04719C19.9696 7.01445 19.9497 6.98275 19.928 6.95224L19.1125 7.53091ZM19.5681 8.35535L20.492 7.97267C20.4777 7.93811 20.4614 7.90437 20.4433 7.87163L19.5681 8.35535ZM19.9286 9.22563L20.8895 8.9488C20.8792 8.91285 20.8668 8.87751 20.8525 8.84295L19.9286 9.22563ZM20.1894 10.1308L21.1752 9.96329C21.169 9.92641 21.1606 9.88991 21.1503 9.85396L20.1894 10.1308ZM20.3472 11.0595L21.3456 11.0034C21.3435 10.9661 21.3393 10.9288 21.333 10.892L20.3472 11.0595ZM20.4 12L21.3984 12.056C21.4005 12.0187 21.4005 11.9813 21.3984 11.9439L20.4 12ZM20.3472 12.9405L21.333 13.108C21.3393 13.0711 21.3435 13.0339 21.3456 12.9965L20.3472 12.9405ZM20.1894 13.8692L21.1503 14.146C21.1606 14.11 21.169 14.0735 21.1752 14.0367L20.1894 13.8692ZM19.9286 14.7743L20.8525 15.157C20.8668 15.1224 20.8792 15.0871 20.8895 15.0512L19.9286 14.7743ZM19.5681 15.6446L20.4433 16.1283C20.4614 16.0956 20.4777 16.0618 20.492 16.0273L19.5681 15.6446ZM19.1125 16.469L19.928 17.0477C19.9497 17.0172 19.9696 16.9855 19.9877 16.9528L19.1125 16.469ZM18.5674 17.2373L19.313 17.9036C19.3379 17.8757 19.3613 17.8465 19.3829 17.816L18.5674 17.2373ZM17.9397 17.9397L18.606 18.6853C18.6339 18.6604 18.6604 18.6339 18.6853 18.606L17.9397 17.9397ZM17.2373 18.5674L17.816 19.3829C17.8465 19.3613 17.8757 19.3379 17.9036 19.313L17.2373 18.5674ZM16.469 19.1125L16.9528 19.9877C16.9855 19.9696 17.0172 19.9497 17.0477 19.928L16.469 19.1125ZM15.6446 19.5681L16.0273 20.492C16.0618 20.4777 16.0956 20.4614 16.1283 20.4433L15.6446 19.5681ZM14.7743 19.9286L15.0512 20.8895C15.0871 20.8792 15.1224 20.8668 15.157 20.8525L14.7743 19.9286ZM13.8692 20.1894L14.0367 21.1752C14.0735 21.169 14.11 21.1606 14.146 21.1503L13.8692 20.1894ZM12.9405 20.3472L12.9965 21.3456C13.0339 21.3435 13.0711 21.3393 13.108 21.333L12.9405 20.3472ZM12 20.4L11.9439 21.3984C11.9813 21.4005 12.0187 21.4005 12.056 21.3984L12 20.4ZM11.0595 20.3472L10.892 21.333C10.9288 21.3393 10.9661 21.3435 11.0034 21.3456L11.0595 20.3472ZM10.1308 20.1894L9.85396 21.1503C9.88991 21.1606 9.92641 21.169 9.96329 21.1752L10.1308 20.1894ZM9.22563 19.9286L8.84295 20.8525C8.87751 20.8668 8.91285 20.8792 8.9488 20.8895L9.22563 19.9286ZM8.35535 19.5681L7.87163 20.4433C7.90437 20.4614 7.93811 20.4777 7.97267 20.492L8.35535 19.5681ZM7.53091 19.1125L6.95224 19.928C6.98275 19.9497 7.01445 19.9696 7.04719 19.9877L7.53091 19.1125ZM6.76266 18.5674L6.09631 19.313C6.12421 19.3379 6.15348 19.3613 6.18399 19.3829L6.76266 18.5674ZM6.06028 17.9397L5.31464 18.606C5.33956 18.6339 5.36604 18.6604 5.39393 18.6853L6.06028 17.9397ZM5.43259 17.2373L4.61703 17.816C4.63868 17.8465 4.66202 17.8757 4.68695 17.9036L5.43259 17.2373ZM4.88749 16.469L4.01227 16.9528C4.03036 16.9855 4.05028 17.0172 4.07193 17.0477L4.88749 16.469ZM4.43184 15.6446L3.50796 16.0273C3.52227 16.0618 3.53852 16.0956 3.55661 16.1283L4.43184 15.6446ZM4.07136 14.7743L3.11044 15.0512C3.12079 15.0871 3.13316 15.1224 3.14748 15.157L4.07136 14.7743ZM3.81058 13.8692L2.82471 14.0367C2.83098 14.0735 2.83931 14.11 2.84966 14.146L3.81058 13.8692ZM3.65279 12.9405L2.65437 12.9965C2.65646 13.0339 2.66066 13.0711 2.66692 13.108L3.65279 12.9405ZM3.59998 12L2.60155 11.9439C2.59945 11.9813 2.59945 12.0187 2.60155 12.056L3.59998 12ZM3.65279 11.0595L2.66692 10.892C2.66066 10.9288 2.65646 10.9661 2.65437 11.0034L3.65279 11.0595ZM3.81058 10.1308L2.84966 9.85396C2.83931 9.88991 2.83098 9.92641 2.82471 9.96329L3.81058 10.1308ZM4.07136 9.22563L3.14748 8.84295C3.13316 8.87751 3.12079 8.91285 3.11044 8.9488L4.07136 9.22563ZM4.43184 8.35535L3.55661 7.87163C3.53852 7.90437 3.52227 7.93811 3.50796 7.97267L4.43184 8.35535ZM4.88749 7.53091L4.07193 6.95224C4.05028 6.98274 4.03036 7.01445 4.01227 7.04719L4.88749 7.53091ZM5.43259 6.76266L4.68695 6.09631C4.66202 6.12421 4.63868 6.15348 4.61703 6.18399L5.43259 6.76266ZM6.06028 6.06028L5.39393 5.31464C5.36604 5.33956 5.33956 5.36604 5.31464 5.39393L6.06028 6.06028ZM6.76266 5.43259L6.18399 4.61703C6.15348 4.63868 6.12421 4.66202 6.09631 4.68695L6.76266 5.43259ZM7.53091 4.88749L7.04719 4.01227C7.01445 4.03036 6.98274 4.05028 6.95224 4.07193L7.53091 4.88749ZM8.35535 4.43184L7.97267 3.50796C7.93811 3.52227 7.90437 3.53852 7.87163 3.55661L8.35535 4.43184ZM9.22563 4.07136L8.9488 3.11044C8.91285 3.12079 8.87751 3.13316 8.84295 3.14748L9.22563 4.07136ZM10.1308 3.81058L9.96329 2.82471C9.92641 2.83098 9.88991 2.83931 9.85396 2.84966L10.1308 3.81058ZM11.0595 3.65279L11.0034 2.65437C10.9661 2.65646 10.9288 2.66066 10.892 2.66692L11.0595 3.65279ZM11.9439 4.5984L12.8844 4.65122L12.9965 2.65437L12.056 2.60155L11.9439 4.5984ZM12.773 4.63866L13.7016 4.79645L14.0367 2.82471L13.108 2.66692L12.773 4.63866ZM13.5923 4.7715L14.4975 5.03227L15.0512 3.11044L14.146 2.84966L13.5923 4.7715ZM14.3916 4.99524L15.2619 5.35572L16.0273 3.50796L15.157 3.14748L14.3916 4.99524ZM15.1609 5.30706L15.9853 5.76272L16.9528 4.01227L16.1283 3.55661L15.1609 5.30706ZM15.8904 5.70305L16.6586 6.24815L17.816 4.61703L17.0477 4.07193L15.8904 5.70305ZM16.5709 6.17823L17.2733 6.80592L18.606 5.31464L17.9036 4.68695L16.5709 6.17823ZM17.194 6.72663L17.8217 7.42901L19.313 6.09631L18.6853 5.39393L17.194 6.72663ZM17.7518 7.34133L18.2969 8.10958L19.928 6.95224L19.3829 6.18399L17.7518 7.34133ZM18.2372 8.01463L18.6929 8.83907L20.4433 7.87163L19.9877 7.04719L18.2372 8.01463ZM18.6442 8.73804L19.0047 9.60831L20.8525 8.84295L20.492 7.97267L18.6442 8.73804ZM18.9677 9.50247L19.2285 10.4076L21.1503 9.85396L20.8895 8.9488L18.9677 9.50247ZM19.2035 10.2983L19.3613 11.227L21.333 10.892L21.1752 9.96329L19.2035 10.2983ZM19.3487 11.1155L19.4015 12.056L21.3984 11.9439L21.3456 11.0034L19.3487 11.1155ZM19.4015 11.9439L19.3487 12.8844L21.3456 12.9965L21.3984 12.056L19.4015 11.9439ZM19.3613 12.773L19.2035 13.7016L21.1752 14.0367L21.333 13.108L19.3613 12.773ZM19.2285 13.5923L18.9677 14.4975L20.8895 15.0512L21.1503 14.146L19.2285 13.5923ZM19.0047 14.3916L18.6442 15.2619L20.492 16.0273L20.8525 15.157L19.0047 14.3916ZM18.6929 15.1609L18.2372 15.9853L19.9877 16.9528L20.4433 16.1283L18.6929 15.1609ZM18.2969 15.8904L17.7518 16.6586L19.3829 17.816L19.928 17.0477L18.2969 15.8904ZM17.8217 16.5709L17.194 17.2733L18.6853 18.606L19.313 17.9036L17.8217 16.5709ZM17.2733 17.194L16.5709 17.8217L17.9036 19.313L18.606 18.6853L17.2733 17.194ZM16.6586 17.7518L15.8904 18.2969L17.0477 19.928L17.816 19.3829L16.6586 17.7518ZM15.9853 18.2372L15.1609 18.6929L16.1283 20.4433L16.9528 19.9877L15.9853 18.2372ZM15.2619 18.6442L14.3916 19.0047L15.157 20.8525L16.0273 20.492L15.2619 18.6442ZM14.4975 18.9677L13.5923 19.2285L14.146 21.1503L15.0512 20.8895L14.4975 18.9677ZM13.7016 19.2035L12.773 19.3613L13.108 21.333L14.0367 21.1752L13.7016 19.2035ZM12.8844 19.3487L11.9439 19.4015L12.056 21.3984L12.9965 21.3456L12.8844 19.3487ZM12.056 19.4015L11.1155 19.3487L11.0034 21.3456L11.9439 21.3984L12.056 19.4015ZM11.227 19.3613L10.2983 19.2035L9.96329 21.1752L10.892 21.333L11.227 19.3613ZM10.4076 19.2285L9.50247 18.9677L8.9488 20.8895L9.85396 21.1503L10.4076 19.2285ZM9.60831 19.0047L8.73804 18.6442L7.97267 20.492L8.84295 20.8525L9.60831 19.0047ZM8.83907 18.6929L8.01463 18.2372L7.04719 19.9877L7.87163 20.4433L8.83907 18.6929ZM8.10958 18.2969L7.34133 17.7518L6.18399 19.3829L6.95224 19.928L8.10958 18.2969ZM7.42901 17.8217L6.72663 17.194L5.39393 18.6853L6.09631 19.313L7.42901 17.8217ZM6.80592 17.2733L6.17823 16.5709L4.68695 17.9036L5.31464 18.606L6.80592 17.2733ZM6.24815 16.6586L5.70305 15.8904L4.07193 17.0477L4.61703 17.816L6.24815 16.6586ZM5.76272 15.9853L5.30706 15.1609L3.55661 16.1283L4.01227 16.9528L5.76272 15.9853ZM5.35572 15.2619L4.99524 14.3916L3.14748 15.157L3.50796 16.0273L5.35572 15.2619ZM5.03227 14.4975L4.7715 13.5923L2.84966 14.146L3.11044 15.0512L5.03227 14.4975ZM4.79645 13.7016L4.63866 12.773L2.66692 13.108L2.82471 14.0367L4.79645 13.7016ZM4.65122 12.8844L4.5984 11.9439L2.60155 12.056L2.65437 12.9965L4.65122 12.8844ZM4.5984 12.056L4.65122 11.1155L2.65437 11.0034L2.60155 11.9439L4.5984 12.056ZM4.63866 11.227L4.79645 10.2983L2.82471 9.96329L2.66692 10.892L4.63866 11.227ZM4.7715 10.4076L5.03227 9.50247L3.11044 8.9488L2.84966 9.85396L4.7715 10.4076ZM4.99524 9.60831L5.35572 8.73804L3.50796 7.97267L3.14748 8.84295L4.99524 9.60831ZM5.30706 8.83907L5.76272 8.01463L4.01227 7.04719L3.55661 7.87163L5.30706 8.83907ZM5.70305 8.10958L6.24815 7.34133L4.61703 6.18399L4.07193 6.95224L5.70305 8.10958ZM6.17823 7.42901L6.80592 6.72663L5.31464 5.39393L4.68695 6.09631L6.17823 7.42901ZM6.72663 6.80592L7.42901 6.17823L6.09631 4.68695L5.39393 5.31464L6.72663 6.80592ZM7.34133 6.24815L8.10958 5.70305L6.95224 4.07193L6.18399 4.61703L7.34133 6.24815ZM8.01463 5.76272L8.83907 5.30706L7.87163 3.55661L7.04719 4.01227L8.01463 5.76272ZM8.73804 5.35572L9.60831 4.99524L8.84295 3.14748L7.97267 3.50796L8.73804 5.35572ZM9.50247 5.03227L10.4076 4.7715L9.85396 2.84966L8.9488 3.11044L9.50247 5.03227ZM10.2983 4.79645L11.227 4.63866L10.892 2.66692L9.96329 2.82471L10.2983 4.79645ZM11.1155 4.65122L12.056 4.5984L11.9439 2.60155L11.0034 2.65437L11.1155 4.65122Z" fill="#43A048"/>
<path d="M7.56924 12.0545L9.81932 14.3259C10.208 14.7183 10.8382 14.7183 11.2268 14.3259L16.4308 9.07267" stroke="#43A048" stroke-width="2" stroke-linecap="round" stroke-linejoin="round"/>
</svg>
