<svg width="18" height="13" viewBox="0 0 18 13" fill="none" xmlns="http://www.w3.org/2000/svg">
<g id="gmail">
<path id="Vector" d="M13.5384 1.39221L9.04807 4.89653L4.45508 1.39221V1.39316L4.46063 1.39789V6.30488L8.99628 9.88497L13.5384 6.44316V1.39221Z" fill="#F44336"/>
<path id="Vector_2" d="M14.7176 0.539789L13.5384 1.39219V6.44314L17.249 3.59423V1.87806C17.249 1.87806 16.7986 -0.573068 14.7176 0.539789Z" fill="#FDD835"/>
<path id="Vector_3" d="M13.5384 6.44327V12.9944H16.3824C16.3824 12.9944 17.1917 12.9111 17.2499 11.9886V3.59436L13.5384 6.44327Z" fill="#43A048"/>
<path id="Vector_4" d="M4.46084 12.9999V6.30478L4.45508 6.30005L4.46084 12.9999Z" fill="#F44336"/>
<path id="Vector_5" d="M4.4551 1.39315L3.28234 0.54549C1.20135 -0.567367 0.75 1.88281 0.75 1.88281V3.59898L4.4551 6.30014V1.39315Z" fill="#B71B1C"/>
<path id="Vector_6" d="M4.45508 1.39307V6.30006L4.46084 6.30479V1.3978L4.45508 1.39307Z" fill="#F44336"/>
<path id="Vector_7" d="M0.75 3.59998V11.9942C0.807343 12.9177 1.61754 13.0001 1.61754 13.0001H4.46158L4.4551 6.30019L0.75 3.59998Z" fill="#304FFE"/>
</g>
</svg>
